PathFileType	4	(X/Y/Z)	C:\Users\Basilio\Documents\Thesis Gigler\squatting_fais\c3dfiles\075\SLS_back_pre4\markers_experimental.trc
DataRate	CameraRate	NumFrames	NumMarkers	Units	OrigDataRate	OrigDataStartFrame	OrigNumFrames
200.000000	200.000000	4	61	mm	200.000000	1013	1351
Frame#	Time	FHD			LBHD			C7			T10			CLAV			LSHO			LUUPA			LMUPA			LDUPA			LLEP			LMEP			LRAD			LUL			LRFIN			RSHO			RUPA1			RMUPA			RDUPA			RLEP			RMEP			RRAD			RUL			RUFIN			LASI			RASI			USACR			LSACR			RSACR			LTHI1			LTHI2			LTHI3			LTHI4			LLFC			LMFC			LTIB1			LTIB2			LTIB3			LTIB4			LLMAL			LMMAL			LHEE			LMT1			LMT2			LMT5			RTHI			RTHI2			RTHI3			RTHI4			RLFC			RMFC			RTIB1			RTIB2			RTIB3			RTIB4			RLMAL			RMMAL			RHEE			RMT1			RMT2			RMT5			RBHD			
		X1	Y1	Z1	X2	Y2	Z2	X3	Y3	Z3	X4	Y4	Z4	X5	Y5	Z5	X6	Y6	Z6	X7	Y7	Z7	X8	Y8	Z8	X9	Y9	Z9	X10	Y10	Z10	X11	Y11	Z11	X12	Y12	Z12	X13	Y13	Z13	X14	Y14	Z14	X15	Y15	Z15	X16	Y16	Z16	X17	Y17	Z17	X18	Y18	Z18	X19	Y19	Z19	X20	Y20	Z20	X21	Y21	Z21	X22	Y22	Z22	X23	Y23	Z23	X24	Y24	Z24	X25	Y25	Z25	X26	Y26	Z26	X27	Y27	Z27	X28	Y28	Z28	X29	Y29	Z29	X30	Y30	Z30	X31	Y31	Z31	X32	Y32	Z32	X33	Y33	Z33	X34	Y34	Z34	X35	Y35	Z35	X36	Y36	Z36	X37	Y37	Z37	X38	Y38	Z38	X39	Y39	Z39	X40	Y40	Z40	X41	Y41	Z41	X42	Y42	Z42	X43	Y43	Z43	X44	Y44	Z44	X45	Y45	Z45	X46	Y46	Z46	X47	Y47	Z47	X48	Y48	Z48	X49	Y49	Z49	X50	Y50	Z50	X51	Y51	Z51	X52	Y52	Z52	X53	Y53	Z53	X54	Y54	Z54	X55	Y55	Z55	X56	Y56	Z56	X57	Y57	Z57	X58	Y58	Z58	X59	Y59	Z59	X60	Y60	Z60	X61	Y61	Z61	

1014	5.065	-246.596664428711	1735.369873046875	-856.784362792969	-362.3106689453126	1593.688110351563	-932.7716064453127	-388.290985107422	1483.98681640625	-877.1758422851565	-389.988739013672	1158.497192382813	-880.493103027344	-242.4286804199219	1428.880859375	-875.0908203125002	-278.9759216308594	1458.79931640625	-1035.985473632813	-300.4151611328126	1262.8623046875	-1159.176025390625	-255.8787841796876	1242.207885742188	-1144.912353515625	-282.2055358886719	1197.556396484375	-1179.113403320313	-249.2417602539063	1118.548828125	-1178.0361328125	-312.5739440917969	1096.924682617188	-1112.56591796875	-123.7102584838867	1115.93701171875	-957.9650878906252	-79.3472137451172	1071.320434570313	-1000.542785644531	-59.58237457275392	1113.316040039063	-897.2940673828127	-287.0755310058594	1444.100708007813	-712.4824218750001	-311.3451843261719	1243.903564453125	-602.0169677734376	-269.7562255859376	1219.552124023438	-613.3047485351564	-300.8080444335938	1175.369140625	-585.3495483398439	-277.0025024414063	1106.12548828125	-582.3732910156251	-329.8157958984376	1069.369750976563	-640.9563598632814	-113.2646789550782	1119.871948242188	-802.1795043945315	-98.33091735839847	1058.635009765625	-757.3250732421876	-35.32572555541993	1103.744995117188	-846.0493774414065	-231.1494293212891	990.103942871094	-1013.035461425781	-217.0562286376954	998.1626586914065	-760.3768310546876	-382.2502136230469	1059.685546875	-882.4736938476565	-388.9398498535157	1027.985229492188	-909.1445922851565	-385.8526916503907	1029.451171875	-852.0118408203127	-291.7704467773438	750.1898193359376	-1087.5927734375	-266.1420898437501	669.6295166015626	-1090.768188476563	-218.4746551513672	672.1657104492189	-1075.79541015625	-295.6230773925782	618.3285522460939	-1081.2548828125	-308.9126281738282	509.4787902832032	-1075.629028320313	-262.9436950683594	486.2039794921876	-954.2293090820315	-257.7392272949219	384.0571899414064	-1054.0478515625	-320.7887268066407	351.1499328613282	-1102.9248046875	-279.8201293945313	340.9710388183594	-1085.945190429688	-286.0757141113282	259.2224731445313	-1063.0546875	-366.3849487304688	122.2387771606446	-1086.302368164063	-336.9763793945313	129.8714752197266	-1006.034790039063	-424.1604003906251	90.46377563476564	-1047.520141601563	-219.0833435058594	52.76647186279298	-1013.376098632813	-214.2102813720704	53.893123626709	-1062.116333007813	-251.982162475586	40.22945404052735	-1115.711669921875	-283.6260986328126	794.1887817382815	-693.7977905273439	-247.6923980712891	739.8822021484376	-697.8482055664064	-217.0131988525391	744.8175048828126	-710.6434936523439	-279.2878417968751	659.9498291015626	-707.1207885742189	-304.2112731933594	507.1583251953126	-735.4058227539064	-270.8069458007813	497.3951416015626	-860.0170898437502	-272.2001342773438	355.7925109863282	-801.8975219726565	-328.3246765136719	283.9831237792969	-741.8867187500001	-293.5622863769532	274.5713806152344	-774.5775146484377	-310.8350524902344	232.0735626220704	-810.903991699219	-389.3757934570314	118.1840133666992	-771.5078125000002	-362.4537658691407	140.9200744628907	-852.572692871094	-449.0003662109376	100.5028915405274	-825.869323730469	-245.6834259033204	55.8473472595215	-838.1729736328127	-245.592269897461	55.16759109497072	-795.6245727539065	-282.7897949218751	36.54494094848634	-742.5994262695314	-336.8595581054688	1631.573852539063	-777.5820312500002	
1015	5.07	-246.2276153564454	1735.335083007813	-857.6630859375002	-362.1746520996094	1593.903076171875	-933.8716430664065	-388.091033935547	1483.982421875	-878.023864746094	-389.7450561523439	1158.483276367188	-881.4094238281252	-242.3165588378907	1428.914794921875	-876.1372680664065	-278.9411315917969	1458.630249023438	-1037.202026367188	-301.2795715332032	1262.615234375	-1160.024047851563	-257.0346069335938	1241.782592773438	-1145.912963867188	-283.7318115234376	1197.282958984375	-1179.8857421875	-251.569076538086	1118.016479492188	-1179.057861328125	-314.9030761718751	1096.773071289063	-1113.3603515625	-125.3032913208008	1114.714111328125	-959.0948486328127	-81.27749633789064	1069.71533203125	-1001.925476074219	-60.48916244506837	1111.496704101563	-898.7307128906252	-286.7571411132813	1444.124877929688	-713.4677734375001	-311.7280578613282	1244.068725585938	-602.8477172851564	-270.3589782714844	1219.46728515625	-614.2225952148439	-301.7395324707032	1175.470703125	-586.2565917968751	-278.4320678710938	1105.973999023438	-583.4050903320314	-331.4410400390626	1069.781982421875	-641.8295898437501	-115.0093383789063	1118.372314453125	-803.585876464844	-100.4146499633789	1057.085815429688	-758.7701416015626	-37.36702728271485	1101.482543945313	-847.670837402344	-230.9294433593751	990.1163330078127	-1013.893859863281	-216.6722412109376	998.2510986328127	-761.3223266601564	-382.0152893066407	1059.713500976563	-883.3937988281252	-388.5442504882814	1028.044677734375	-909.941101074219	-385.569549560547	1029.556884765625	-852.8601074218752	-291.6990966796876	750.1467285156251	-1088.245483398438	-265.4753723144532	669.4625854492189	-1091.186401367188	-218.5996246337891	672.0390014648439	-1076.227783203125	-295.8526916503907	618.3355102539064	-1081.578735351563	-309.3587341308594	509.5004882812501	-1075.94775390625	-263.2207031250001	486.2581481933595	-954.479675292969	-258.4807739257813	384.081512451172	-1054.66552734375	-321.7692565917969	351.2222595214844	-1103.398071289063	-280.0407409667969	341.0324401855469	-1086.17431640625	-286.3637695312501	259.1304626464844	-1063.296264648438	-366.5223999023438	122.1857376098633	-1086.4091796875	-337.1214294433594	129.7813873291016	-1006.126098632813	-424.1749572753907	90.38797760009767	-1047.593139648438	-219.1676635742188	52.79701614379884	-1013.45263671875	-214.2507476806641	53.90355300903322	-1062.164428710938	-251.8714141845704	40.1303939819336	-1115.73193359375	-283.2945251464844	794.4114379882815	-694.4512939453126	-247.337631225586	740.0020751953126	-698.6096191406251	-216.7141418457032	744.9279785156251	-711.2012329101564	-279.0119628906251	660.1516723632814	-707.6782836914064	-304.0018920898438	507.332489013672	-735.9187011718751	-270.5165100097657	497.3935546875001	-860.5178833007815	-272.0682067871094	355.8443603515626	-802.254333496094	-328.2741394042969	284.1652221679688	-742.0987548828126	-293.4325561523438	274.6618347167969	-774.7874755859377	-310.7391052246094	232.1556854248047	-811.0708007812502	-389.3820190429689	118.2592697143555	-771.5653076171877	-362.2508239746094	140.9072265625	-852.5662231445315	-448.9490356445314	100.5448074340821	-825.8718872070315	-245.7944335937501	55.92840576171876	-838.2297363281252	-245.6065979003907	55.180233001709	-795.6633300781252	-282.7739257812501	36.57834625244141	-742.6215209960939	-336.5444030761719	1631.621948242188	-778.8152465820315	
1016	5.075	-245.9351043701172	1735.3037109375	-858.5194091796877	-362.0235595703126	1594.033813476563	-934.872985839844	-387.9882812500001	1483.908569335938	-879.0869140625002	-389.3681945800782	1158.514892578125	-882.315612792969	-242.7739715576172	1429.01953125	-877.6228027343752	-278.9296875000001	1458.559814453125	-1038.345458984375	-302.6055908203126	1262.50244140625	-1161.017211914063	-259.4887390136719	1241.45361328125	-1146.6630859375	-285.4220275878907	1196.863525390625	-1180.82177734375	-253.5593719482422	1117.424560546875	-1179.9013671875	-316.8004760742188	1096.71533203125	-1114.0712890625	-127.0415267944336	1113.310668945313	-960.3543701171877	-83.25350952148439	1068.095336914063	-1003.332763671875	-62.76332855224611	1109.786743164063	-899.850769042969	-286.5220031738282	1444.181518554688	-714.4063110351564	-312.1885070800782	1244.20556640625	-603.6322631835939	-271.0034484863282	1219.211791992188	-615.2386474609376	-302.6387939453126	1175.453979492188	-587.2747802734376	-279.6791687011719	1105.908325195313	-584.4467163085939	-333.2893066406251	1069.937622070313	-642.9116821289064	-116.6858139038086	1116.953735351563	-805.0132446289065	-102.3819656372071	1055.61767578125	-760.0843505859376	-38.91157913208009	1099.818115234375	-848.7401123046877	-230.6090240478516	990.0068359375002	-1014.906188964844	-216.3743591308594	998.3278808593752	-762.0971069335939	-381.6999816894532	1059.802124023438	-884.3240966796877	-388.3035583496095	1028.028930664063	-910.8828735351565	-385.2423706054689	1029.6259765625	-853.7866821289065	-291.8247070312501	750.1093139648439	-1088.906494140625	-266.2617187500001	669.6698608398439	-1092.055541992188	-218.6582031250001	671.8961181640626	-1076.768310546875	-295.9317321777344	618.2822875976564	-1081.908569335938	-309.7895202636719	509.5166931152345	-1076.350952148438	-263.3731689453126	486.2430114746095	-954.859558105469	-258.3574523925782	383.9526367187501	-1054.58447265625	-321.9909057617188	351.2176513671876	-1103.652465820313	-280.3155822753907	341.0247802734376	-1086.46923828125	-286.5440063476563	259.1667480468751	-1063.510131835938	-366.6188659667969	122.0761260986328	-1086.470947265625	-337.1535949707032	129.7537689208985	-1006.237976074219	-423.7795410156251	90.02076721191408	-1047.671752929688	-219.1447448730469	52.77799224853517	-1013.492553710938	-214.2397460937501	53.88972091674806	-1062.201416015625	-251.888656616211	40.15840911865235	-1115.76611328125	-282.8589782714844	794.5876464843752	-695.1546630859376	-247.0714111328126	740.0988159179689	-699.1704101562501	-216.4660034179688	745.0558471679689	-711.8474121093751	-278.7781066894532	660.2925415039064	-708.2538452148439	-303.8771362304688	507.4475708007814	-736.3764648437501	-270.3409729003907	497.396942138672	-860.9563598632815	-271.9515686035157	355.9247741699219	-802.5347290039065	-328.1795043945313	284.3157348632813	-742.2872924804689	-293.4980163574219	274.7980041503907	-775.071472167969	-310.7513427734376	232.2506713867188	-811.2536621093752	-389.3714294433595	118.357650756836	-771.5933227539065	-362.2029724121094	140.9399871826172	-852.659118652344	-448.9645996093751	100.5923538208008	-825.882019042969	-245.7476806640626	55.95808029174806	-838.215026855469	-245.6534423828126	55.16854095458986	-795.651062011719	-282.7848510742188	36.58399963378907	-742.6459960937501	-336.4090270996094	1631.635620117188	-779.5833740234377	
1017	5.08	-245.6420440673829	1735.263549804688	-859.4214477539065	-361.6032714843751	1594.143920898438	-935.7800903320315	-387.9760131835939	1483.8310546875	-879.987976074219	-389.2294311523439	1158.453979492188	-883.1815185546877	-242.0849609375001	1428.822143554688	-878.1649169921877	-278.8862609863282	1458.4248046875	-1039.460327148438	-304.0961914062501	1262.365966796875	-1162.390991210938	-261.6108703613282	1241.115966796875	-1148.094604492188	-287.0938720703126	1196.54296875	-1181.60791015625	-255.615707397461	1116.99755859375	-1180.747436523438	-319.0046081542969	1096.59423828125	-1114.760131835938	-128.5825347900391	1112.050170898438	-961.645446777344	-85.16456604003908	1066.643432617188	-1004.599182128906	-63.65188598632814	1108.054565429688	-901.2753906250002	-286.4369812011719	1444.26904296875	-715.2338867187501	-312.5045166015626	1244.2841796875	-604.4731445312501	-271.5907287597657	1219.1162109375	-616.2155761718751	-303.4146728515626	1175.562622070313	-588.1490478515626	-280.8128051757813	1105.893310546875	-585.4595336914064	-334.7488403320313	1070.25927734375	-643.7595825195314	-118.2864608764649	1115.563598632813	-806.445983886719	-104.3298721313477	1054.159545898438	-761.4830322265626	-40.61215972900391	1098.000366210938	-850.1316528320315	-230.3126525878907	989.9862060546877	-1015.714050292969	-216.1034393310547	998.3208618164065	-763.0119018554689	-381.3736267089844	1059.86474609375	-885.119812011719	-388.0293884277345	1028.05029296875	-911.718200683594	-385.0027160644532	1029.536499023438	-854.6146240234377	-291.6499328613282	749.9305419921876	-1089.479370117188	-266.2466735839844	669.6445312500001	-1092.614135742188	-218.7549285888672	671.8590698242189	-1077.362182617188	-296.0182495117188	618.2715454101564	-1082.399658203125	-310.0867309570313	509.4676208496095	-1076.752807617188	-263.5060119628907	486.2994689941407	-955.2409667968752	-258.4880371093751	383.9961242675782	-1054.817749023438	-322.0876464843751	351.1553955078126	-1103.853393554688	-280.4962463378907	340.9755554199219	-1086.775390625	-286.7135925292969	259.1050415039063	-1063.773681640625	-366.6510009765626	121.9942321777344	-1086.561279296875	-337.1191711425782	129.7386322021485	-1006.340393066406	-424.2364807128907	90.26753997802736	-1047.70751953125	-219.1401824951172	52.79884338378908	-1013.5087890625	-214.2171325683594	53.89242172241212	-1062.275146484375	-251.9402618408204	39.9923439025879	-1115.832763671875	-282.6546020507813	794.616638183594	-695.8513793945314	-246.8601684570313	740.2349243164064	-699.8717041015626	-216.1428222656251	745.2094116210939	-712.6654052734376	-278.5473632812501	660.3564453125001	-708.8223266601564	-303.7780761718751	507.5491333007814	-736.8173217773439	-270.5585937500001	497.556854248047	-861.4241333007815	-271.8768005371094	355.9768066406251	-802.8118286132815	-328.1605529785157	284.3930358886719	-742.5639038085939	-293.2649536132813	274.9892272949219	-775.3142700195315	-310.7344665527344	232.2258605957032	-811.4749145507815	-389.3467102050782	118.4453277587891	-771.664245605469	-362.3536376953126	141.0137786865235	-852.7385864257815	-448.9769287109376	100.6513748168946	-825.8950805664065	-245.7109680175782	55.96195602416994	-838.220153808594	-245.6062164306641	55.16556930541994	-795.6690673828127	-282.7675781250001	36.61693191528321	-742.6622924804689	-336.3745727539063	1631.564331054688	-780.1059570312502	
